<?xml version="1.0" standalone="no"?>
<!DOCTYPE svg PUBLIC "-//W3C//DTD SVG 20010904//EN"
 "http://www.w3.org/TR/2001/REC-SVG-20010904/DTD/svg10.dtd">
<svg version="1.0" xmlns="http://www.w3.org/2000/svg"
 width="300.000000pt" height="300.000000pt" viewBox="0 0 300.000000 300.000000"
 preserveAspectRatio="xMidYMid meet">
<metadata>
Created by potrace 1.10, written by Peter Selinger 2001-2011
</metadata>
<g transform="translate(0.000000,300.000000) scale(0.100000,-0.100000)"
fill="#000000" stroke="none">
<path d="M1620 2523 l0 -248 67 0 67 0 11 -50 11 -50 14 53 14 54 83 -4 83 -3
0 248 0 247 -175 0 -175 0 0 -247z m322 142 l3 -75 -150 0 -150 0 0 75 0 75
147 0 146 0 4 -75z m0 -161 l-4 -54 -34 0 -34 0 0 58 0 58 38 -4 37 -4 -3 -54z
m-92 46 c0 -6 -42 -10 -105 -10 -63 0 -105 4 -105 10 0 6 42 10 105 10 63 0
105 -4 105 -10z m0 -40 c0 -6 -40 -10 -99 -10 -56 0 -103 4 -106 10 -4 6 32
10 99 10 64 0 106 -4 106 -10z m0 -35 c0 -12 -18 -13 -102 -10 -57 2 -104 5
-106 5 -2 0 0 5 3 10 3 6 50 10 106 10 80 0 99 -3 99 -15z m0 -35 c0 -6 -40
-10 -100 -10 -60 0 -100 4 -100 10 0 6 40 10 100 10 60 0 100 -4 100 -10z m95
-65 l0 -55 -37 0 -38 0 0 55 0 55 38 0 37 0 0 -55z m-90 25 c-3 -6 -50 -10
-106 -10 -59 0 -99 4 -99 10 0 6 42 10 106 10 67 0 103 -4 99 -10z m-5 -34
c-3 -5 -49 -10 -102 -10 -75 -1 -98 1 -98 11 0 11 23 13 103 11 56 -2 100 -7
97 -12z m10 -38 c0 -10 -28 -13 -105 -13 -77 0 -105 3 -105 13 0 9 28 12 105
12 77 0 105 -3 105 -12z m-70 -44 c0 -9 -5 -14 -12 -12 -18 6 -21 28 -4 28 9
0 16 -7 16 -16z"/>
<path d="M1780 2713 c-19 -7 -40 -33 -40 -50 0 -18 37 -53 55 -53 8 0 24 9 35
20 11 11 20 27 20 35 0 16 -35 56 -47 54 -5 0 -15 -3 -23 -6z m40 -48 c0 -2
-9 -9 -20 -15 -18 -9 -20 -8 -20 15 0 23 2 24 20 15 11 -6 20 -13 20 -15z"/>
<path d="M576 2513 c-1 -2 -1 -16 2 -33 5 -33 22 -41 22 -10 0 19 7 20 145 20
l145 0 0 -75 0 -75 -100 0 c-60 0 -100 -4 -100 -10 0 -5 25 -10 55 -10 41 0
55 -4 55 -14 0 -11 -15 -16 -52 -19 l-53 -3 53 -2 c68 -3 68 -22 0 -22 -38 0
-49 -3 -41 -11 6 -6 30 -10 52 -7 29 2 41 0 41 -9 0 -9 -17 -13 -54 -13 l-53
0 -6 59 c-8 72 -33 138 -58 151 -27 15 -87 12 -126 -7 -37 -17 -53 -46 -78
-133 -26 -92 -27 -118 -6 -129 30 -16 56 -13 75 8 15 16 16 23 5 43 -6 13 -18
27 -25 31 -8 4 -14 17 -14 27 0 16 7 20 33 20 18 0 42 7 53 15 12 8 25 11 29
7 3 -4 5 0 3 8 -2 8 2 14 7 13 14 -2 18 54 5 62 -6 4 -10 3 -9 -2 6 -32 -22
-63 -67 -73 -21 -5 -41 -7 -46 -4 -8 5 9 52 27 72 23 26 135 37 120 12 -8 -14
23 -101 42 -116 17 -13 17 -15 -8 -37 -40 -34 -51 -60 -34 -84 11 -16 27 -20
96 -22 46 -1 85 -4 88 -7 10 -10 -9 -14 -72 -15 -37 -1 -64 -5 -61 -10 3 -5
11 -9 19 -9 8 0 21 -10 30 -22 8 -13 19 -23 23 -23 3 0 7 -13 8 -30 4 -68 16
-149 24 -166 15 -27 13 -29 -28 -29 -36 0 -38 -2 -34 -28 3 -26 1 -28 -53 -39
-30 -7 -63 -9 -73 -6 -13 4 -14 3 -6 -6 6 -7 22 -12 35 -12 13 0 36 1 51 1 14
0 33 6 40 14 8 8 23 16 34 19 16 4 16 5 2 6 -11 1 -15 6 -12 16 7 18 34 20 35
3 0 -7 2 -21 4 -30 2 -9 -3 -25 -10 -34 -10 -15 -33 -18 -130 -21 -80 -3 -115
-1 -110 6 3 6 0 11 -7 11 -9 0 -9 3 2 10 11 7 11 10 2 10 -7 0 -24 12 -37 26
-17 18 -23 21 -21 8 1 -9 13 -23 27 -31 l24 -14 -24 7 c-16 4 -21 3 -17 -5 4
-6 14 -11 22 -11 8 0 13 -4 9 -9 -11 -19 31 -27 115 -24 47 1 99 3 117 3 57 0
66 20 60 134 -3 56 -12 125 -20 154 l-14 52 40 0 39 0 -6 -37 -6 -38 31 38
c17 20 37 37 45 37 12 0 14 40 14 238 l0 237 -166 0 c-91 0 -167 -1 -168 -2z
m314 -248 l0 -55 -35 0 -35 0 0 55 0 55 35 0 35 0 0 -55z m-426 -41 c22 -22
20 -44 -4 -44 -16 0 -20 7 -20 30 0 34 3 36 24 14z m203 -11 c0 -20 -15 -43
-28 -43 -14 0 -10 22 8 42 20 22 20 22 20 1z m133 -13 c0 -5 -20 -10 -45 -10
-25 0 -45 -4 -45 -10 0 -5 20 -10 45 -10 25 0 45 -4 45 -10 0 -6 -29 -10 -67
-10 -59 1 -66 2 -50 14 10 8 15 20 11 30 -5 14 2 16 50 16 31 0 56 -4 56 -10z
m90 -65 l0 -55 -35 0 -35 0 0 55 0 55 35 0 35 0 0 -55z m-90 -45 c0 -5 -18
-10 -39 -10 -22 0 -43 5 -46 10 -4 6 12 10 39 10 25 0 46 -4 46 -10z m62 -42
c-9 -9 -15 -9 -24 0 -9 9 -7 12 12 12 19 0 21 -3 12 -12z"/>
<path d="M1374 2462 c-7 -4 -18 -42 -25 -84 -14 -86 -7 -108 37 -108 24 0 33
23 14 35 -5 3 -10 18 -10 32 0 21 4 24 21 20 16 -4 23 0 26 14 5 18 11 20 42
14 20 -3 44 -8 53 -11 21 -6 58 29 58 56 0 13 -10 24 -26 30 -29 12 -174 13
-190 2z m159 -21 c16 -1 27 -7 27 -15 0 -20 -32 -28 -75 -20 -27 5 -41 2 -55
-11 -11 -10 -20 -14 -20 -10 0 4 -9 0 -20 -10 -22 -20 -24 -12 -11 35 7 26 46
39 101 34 14 -1 37 -2 53 -3z"/>
<path d="M660 2434 c0 -8 19 -12 55 -13 33 0 55 4 55 11 0 6 -11 8 -25 6 -14
-3 -25 -2 -25 2 0 3 -13 6 -30 6 -17 0 -30 -5 -30 -12z"/>
<path d="M803 2442 c-33 -5 -28 -17 7 -20 17 -1 30 2 30 7 0 14 -11 18 -37 13z"/>
<path d="M700 2391 c0 -5 9 -11 20 -14 12 -3 20 0 20 7 0 6 -9 12 -20 13 -11
1 -20 -2 -20 -6z"/>
<path d="M750 2388 c0 -6 9 -8 20 -5 11 3 20 1 20 -5 0 -5 5 -6 10 -3 6 4 8
10 5 14 -7 12 -55 10 -55 -1z"/>
<path d="M2289 2346 c-41 -28 -63 -73 -83 -177 -8 -42 -27 -103 -42 -135 -24
-52 -100 -381 -91 -391 2 -2 34 -6 71 -10 73 -7 74 -8 51 -73 -9 -26 -12 -47
-6 -54 5 -6 14 -44 20 -84 6 -40 24 -112 39 -160 25 -81 27 -94 19 -180 -7
-80 -5 -103 13 -170 30 -111 47 -225 34 -229 -6 -2 -9 -14 -7 -27 3 -16 -5
-34 -27 -59 l-32 -37 30 -30 c17 -16 40 -30 52 -30 34 0 90 30 90 49 0 14 12
16 83 16 45 0 84 5 87 10 3 6 -23 24 -56 40 -65 32 -92 59 -72 71 7 5 8 3 3
-6 -5 -9 -4 -11 3 -6 21 12 13 28 -10 21 -20 -7 -21 -5 -15 54 4 33 16 96 27
138 15 58 20 106 19 188 0 66 4 122 11 140 27 67 41 135 45 230 3 55 3 94 -1
88 -8 -19 -32 -16 -45 6 -11 17 -16 17 -57 5 -25 -8 -53 -14 -63 -14 -10 0
-35 -11 -56 -25 -26 -18 -48 -25 -73 -23 -35 3 -35 3 -32 48 1 25 3 55 3 68 1
20 6 22 65 22 69 0 69 0 58 59 -5 24 -12 31 -29 31 -42 0 -55 10 -49 37 7 25
-23 103 -40 103 -4 0 -5 17 -2 38 5 27 4 33 -3 22 -6 -8 -11 -22 -11 -31 0 -9
-8 -31 -17 -50 -9 -18 -17 -51 -17 -73 -1 -33 3 -42 24 -52 18 -10 28 -10 37
-2 24 20 63 -6 63 -42 0 -27 -3 -30 -32 -30 -17 0 -45 4 -62 10 -17 5 -48 12
-69 15 -34 5 -37 8 -35 35 1 17 6 30 11 30 4 0 6 4 3 9 -3 5 -2 28 3 52 5 24
16 79 24 121 9 43 22 88 29 100 7 13 11 27 10 32 -4 14 19 36 57 52 20 9 43
19 51 24 16 8 16 50 1 60 -5 3 -13 18 -16 33 -6 23 -4 27 15 27 41 0 89 37 90
69 0 9 -14 2 -35 -19 -19 -19 -35 -30 -35 -26 0 5 -6 3 -13 -3 -8 -6 -16 -8
-19 -5 -3 3 -11 -9 -17 -27 -9 -27 -8 -35 5 -50 12 -14 13 -22 4 -38 -6 -12
-15 -19 -21 -16 -5 4 -9 1 -9 -4 0 -6 -4 -11 -9 -11 -10 0 -5 60 6 90 4 8 7
27 8 42 4 49 55 105 102 113 31 5 89 -34 91 -60 1 -18 -2 -23 -13 -19 -8 4
-13 10 -10 14 3 4 -2 13 -10 20 -12 10 -14 7 -12 -18 1 -17 6 -30 11 -29 15 3
29 -48 22 -77 -11 -45 -43 -69 -83 -63 -28 5 -34 3 -31 -11 4 -23 49 -28 64
-7 7 9 17 14 23 10 16 -9 42 -108 61 -233 9 -62 20 -115 23 -118 3 -3 9 11 13
32 5 26 2 59 -9 99 -9 33 -18 79 -20 103 -2 24 -13 56 -27 74 l-23 31 24 -6
c13 -4 27 -7 32 -7 4 0 7 -5 7 -12 0 -6 18 -49 41 -94 22 -46 42 -93 44 -106
24 -134 23 -137 -5 -173 l-27 -34 -10 27 c-11 26 -11 26 -6 -5 6 -36 -11 -46
-22 -13 -9 29 1 54 35 78 17 13 30 27 30 32 0 5 -11 -2 -25 -15 -13 -14 -30
-25 -38 -25 -29 0 -36 -21 -19 -58 13 -27 14 -36 5 -39 -9 -3 -11 -14 -7 -31
10 -43 26 -52 22 -13 -2 27 1 35 19 42 20 7 22 4 28 -43 5 -35 10 -47 18 -39
7 7 7 24 -1 58 -11 50 -9 56 37 82 13 8 10 41 -16 164 -4 22 -2 27 13 27 16 0
17 -2 4 -10 -11 -7 -7 -10 18 -10 30 0 33 -2 26 -22 -4 -13 -9 -30 -11 -38 -3
-8 11 2 31 23 28 29 44 37 71 37 l35 0 0 210 0 210 -143 0 -144 0 -2 -64 c-1
-35 2 -67 7 -70 6 -3 9 20 8 54 l-2 60 88 0 88 0 0 -67 0 -68 -80 0 c-47 0
-80 -4 -80 -10 0 -6 46 -9 120 -9 84 1 120 -1 120 -10 0 -8 -34 -10 -116 -8
-73 2 -121 -1 -127 -7 -8 -8 26 -11 116 -11 78 0 127 -4 127 -10 0 -6 -50 -10
-130 -10 -136 0 -134 -1 -131 45 1 20 1 20 -8 0 -8 -18 -10 -16 -11 10 -1 17
-5 38 -9 49 -4 10 -4 41 0 70 8 64 -2 91 -43 116 -44 27 -86 25 -129 -4z m461
-108 c0 -24 -4 -28 -30 -28 -26 0 -30 4 -30 28 0 25 4 28 30 28 26 0 30 -3 30
-28z m0 -70 c0 -30 -3 -33 -30 -33 -26 0 -30 4 -30 27 0 21 5 27 28 31 15 2
28 5 30 6 1 0 2 -14 2 -31z m-292 -53 c0 -16 -2 -15 -8 5 -11 34 -11 60 0 35
5 -11 8 -29 8 -40z m292 -75 c0 -6 -46 -10 -119 -10 -69 0 -122 4 -126 10 -4
6 38 10 119 10 77 0 126 -4 126 -10z m-80 -30 c0 -6 -30 -10 -69 -10 -39 0
-73 5 -76 10 -4 6 22 10 69 10 44 0 76 -4 76 -10z m80 -48 c0 -58 0 -59 -30
-59 -30 0 -30 1 -30 59 0 58 0 58 30 58 30 0 30 0 30 -58z m-70 18 c0 -6 -30
-10 -70 -10 -40 0 -70 4 -70 10 0 6 30 10 70 10 40 0 70 -4 70 -10z m0 -30 c0
-5 -25 -10 -56 -10 -37 0 -53 -4 -49 -11 4 -6 26 -9 49 -8 22 2 42 -1 44 -7 1
-5 -19 -10 -46 -12 -44 -3 -50 0 -60 23 -7 14 -12 28 -12 30 0 3 29 5 65 5 37
0 65 -4 65 -10z m-3 -77 c-11 -11 -17 -13 -17 -5 0 7 -8 13 -17 13 -10 1 -4 4
12 8 38 9 43 5 22 -16z m-429 -133 c-3 -21 -7 -25 -33 -22 -16 2 -31 5 -32 6
-1 1 1 18 6 37 5 19 12 48 16 64 l7 30 20 -45 c10 -24 18 -56 16 -70z m82 -75
c0 -19 -4 -35 -10 -35 -5 0 -10 16 -10 35 0 19 5 35 10 35 6 0 10 -16 10 -35z
m155 -145 c-3 -6 2 -13 12 -17 28 -10 30 -18 21 -96 -9 -83 -21 -131 -51 -205
-16 -40 -19 -57 -10 -70 9 -15 9 -123 0 -187 -8 -54 -32 -145 -39 -145 -7 0
-3 64 7 114 3 14 1 16 -7 8 -6 -6 -13 -54 -16 -106 -5 -94 -20 -132 -24 -58
l-1 37 -4 -37 c-5 -44 -20 -50 -28 -10 -4 15 -13 54 -21 87 -8 33 -18 71 -21
85 -3 14 -7 84 -7 155 -1 103 -6 145 -23 200 -45 143 -46 187 -5 181 9 -2 34
8 54 20 20 13 58 26 84 28 26 3 52 10 57 15 14 14 30 14 22 1z m-68 -762 c-3
-7 -5 -2 -5 12 0 14 2 19 5 13 2 -7 2 -19 0 -25z m5 -58 c6 0 5 -7 -3 -17 -10
-11 -10 -14 -1 -9 11 7 17 -6 12 -29 -1 -5 2 -7 6 -3 4 4 20 -4 36 -17 16 -14
36 -25 43 -25 8 0 16 -4 20 -9 7 -13 -53 -12 -88 1 -28 11 -52 50 -48 76 3 17
-9 15 -30 -4 -21 -19 -39 -11 -39 16 0 18 38 31 68 23 8 -1 18 -3 24 -3z m-27
-77 c21 -51 8 -80 -40 -89 -27 -5 -41 -2 -56 12 -19 17 -19 17 1 39 11 12 20
26 20 32 0 15 28 25 35 13 4 -6 12 -10 18 -10 7 0 6 4 -3 10 -11 7 -11 10 -2
10 7 0 10 5 7 10 -3 6 -4 10 -1 10 3 0 13 -17 21 -37z"/>
<path d="M2461 1496 c-9 -11 -9 -16 0 -22 7 -4 9 -3 5 4 -3 5 0 12 6 15 7 2
10 7 7 11 -3 4 -12 0 -18 -8z"/>
<path d="M2434 1385 c0 -60 1 -84 3 -52 2 32 2 81 0 110 -2 29 -3 3 -3 -58z"/>
<path d="M2450 1316 c0 -19 3 -37 8 -40 4 -2 6 13 4 35 -5 48 -12 51 -12 5z"/>
<path d="M2422 1250 c0 -14 2 -19 5 -12 2 6 2 18 0 25 -3 6 -5 1 -5 -13z"/>
<path d="M2441 1244 c0 -11 3 -14 6 -6 3 7 2 16 -1 19 -3 4 -6 -2 -5 -13z"/>
<path d="M2405 1210 c-3 -5 -1 -10 4 -10 6 0 11 5 11 10 0 6 -2 10 -4 10 -3 0
-8 -4 -11 -10z"/>
<path d="M2422 1183 c-7 -22 -12 -49 -11 -59 0 -11 7 4 15 31 16 60 13 85 -4
28z"/>
<path d="M2380 1135 c-12 -23 -14 -23 -27 -7 -12 16 -13 16 -6 -2 4 -12 3 -17
-4 -13 -5 3 -10 -1 -10 -9 0 -9 4 -11 10 -5 5 5 15 7 21 5 7 -3 18 7 25 22 15
34 8 42 -9 9z"/>
<path d="M2420 1084 c0 -10 5 -26 10 -34 8 -11 9 -7 4 15 -8 37 -14 45 -14 19z"/>
<path d="M2403 1020 c0 -41 2 -58 4 -37 2 20 2 54 0 75 -2 20 -4 3 -4 -38z"/>
<path d="M2420 965 c0 -14 4 -25 9 -25 4 0 6 11 3 25 -2 14 -6 25 -8 25 -2 0
-4 -11 -4 -25z"/>
<path d="M2385 885 c-3 -26 -4 -49 -2 -51 3 -3 8 16 12 41 3 26 4 49 2 51 -3
3 -8 -16 -12 -41z"/>
<path d="M1508 2353 c7 -3 16 -2 19 1 4 3 -2 6 -13 5 -11 0 -14 -3 -6 -6z"/>
<path d="M1540 2350 c-1 -8 -2 -24 -1 -35 2 -17 0 -17 -8 -5 -6 8 -11 10 -11
4 0 -6 3 -14 7 -18 4 -4 8 -15 8 -24 0 -9 9 -18 19 -20 15 -3 17 0 11 14 -4
11 -11 37 -15 59 -4 22 -9 33 -10 25z"/>
<path d="M1411 2333 c7 -12 15 -20 18 -17 3 2 -3 12 -13 22 -17 16 -18 16 -5
-5z"/>
<path d="M525 2260 c-3 -5 -1 -10 4 -10 6 0 11 5 11 10 0 6 -2 10 -4 10 -3 0
-8 -4 -11 -10z"/>
<path d="M573 2242 c0 -12 5 -22 9 -22 11 0 10 12 -2 30 -7 12 -9 10 -7 -8z"/>
<path d="M1502 2246 c17 -12 17 -14 -2 -31 -12 -11 -20 -14 -20 -6 0 7 -5 9
-11 5 -16 -9 15 -38 34 -31 31 12 24 78 -7 77 -6 0 -3 -7 6 -14z"/>
<path d="M1366 2228 c-10 -39 -7 -44 32 -57 20 -7 43 -15 50 -18 20 -8 4 48
-20 72 -20 20 -20 20 -4 -12 22 -44 20 -47 -13 -23 -20 13 -28 27 -26 40 5 28
-11 25 -19 -2z"/>
<path d="M2551 2231 c-8 -5 -20 -7 -28 -4 -7 3 -13 0 -13 -6 0 -6 14 -11 30
-11 20 0 30 5 30 15 0 17 0 18 -19 6z"/>
<path d="M2580 2225 c0 -8 4 -15 8 -15 5 0 9 7 9 15 0 8 -4 15 -9 15 -4 0 -8
-7 -8 -15z"/>
<path d="M2605 2231 c-3 -5 -1 -12 5 -16 5 -3 10 0 10 7 0 11 2 10 9 0 7 -11
9 -11 14 2 5 11 1 16 -13 16 -10 0 -21 -4 -25 -9z"/>
<path d="M530 2221 c0 -5 7 -12 16 -15 14 -5 15 -4 4 9 -14 17 -20 19 -20 6z"/>
<path d="M1823 2218 c-16 -21 -32 -99 -24 -120 10 -27 23 -9 49 70 20 59 20
62 3 62 -10 0 -23 -6 -28 -12z"/>
<path d="M2285 2210 c3 -5 8 -10 11 -10 2 0 4 5 4 10 0 6 -5 10 -11 10 -5 0
-7 -4 -4 -10z"/>
<path d="M2384 2180 c0 -11 4 -20 8 -20 4 0 8 9 8 20 0 11 -4 20 -8 20 -4 0
-8 -9 -8 -20z"/>
<path d="M2520 2181 c0 -5 9 -11 19 -14 14 -3 18 -1 14 9 -6 15 -33 19 -33 5z"/>
<path d="M2567 2178 c2 -5 14 -6 25 -2 15 4 18 3 13 -6 -5 -9 -4 -11 3 -6 22
13 12 26 -17 24 -16 -1 -27 -6 -24 -10z"/>
<path d="M520 2163 c0 -8 13 -13 35 -13 19 0 35 4 35 9 0 5 -16 11 -35 13 -24
3 -35 0 -35 -9z"/>
<path d="M386 2119 c-14 -11 -30 -29 -36 -39 -14 -26 -61 -212 -55 -218 7 -8
35 64 35 91 0 13 7 32 15 43 8 10 15 27 15 36 0 30 22 66 46 77 13 6 24 15 24
21 0 16 -15 12 -44 -11z"/>
<path d="M470 2136 c0 -3 13 -12 30 -21 38 -20 101 -19 126 1 18 15 18 15 -6
9 -57 -14 -72 -15 -83 -8 -7 4 -16 8 -22 9 -5 1 -18 5 -27 9 -10 4 -18 5 -18
1z"/>
<path d="M1246 2097 c-25 -25 -47 -61 -55 -87 -7 -25 -37 -102 -68 -171 l-55
-127 62 -135 c60 -133 61 -135 49 -181 -8 -33 -9 -70 -3 -119 5 -40 9 -153 9
-252 0 -171 -1 -182 -23 -212 -60 -84 -103 -198 -127 -339 -13 -76 -31 -159
-40 -183 -8 -24 -15 -47 -15 -51 0 -4 26 -12 58 -18 31 -6 78 -16 103 -22 26
-6 71 -10 100 -8 l53 3 -29 31 c-34 35 -162 88 -188 78 -10 -3 -29 -3 -45 2
-24 7 -23 9 22 14 l48 5 103 203 c56 112 112 213 124 226 11 12 21 33 21 47 1
13 11 74 23 134 l23 110 18 -55 c10 -30 26 -70 37 -88 10 -18 19 -39 19 -47 0
-25 70 -260 105 -351 19 -49 48 -111 64 -135 15 -25 34 -63 41 -85 18 -57 17
-56 64 -29 24 14 51 25 62 25 20 0 159 74 169 89 3 5 -11 15 -30 21 -29 9 -49
8 -115 -9 -44 -11 -90 -29 -102 -40 -12 -12 -29 -21 -37 -21 -14 1 -14 2 1 13
9 7 24 17 34 23 17 10 15 22 -29 210 -26 111 -47 225 -47 255 0 30 -9 82 -20
115 -11 32 -40 169 -65 304 l-46 245 12 107 c11 99 13 106 30 95 46 -29 164
88 243 240 l16 33 -40 26 c-22 15 -42 25 -43 23 -2 -2 -34 -39 -72 -83 l-69
-78 -22 27 c-13 16 -24 47 -26 74 -3 25 -12 62 -22 83 -15 31 -29 41 -101 72
-110 47 -128 47 -179 -7z m200 -20 c27 -14 55 -36 63 -49 17 -28 32 -98 20
-98 -4 0 -33 32 -64 70 -49 62 -127 121 -141 107 -3 -3 16 -15 41 -27 29 -14
60 -41 84 -74 21 -28 53 -64 70 -80 17 -17 31 -34 31 -40 0 -5 8 -18 17 -28
11 -13 17 -34 16 -61 l-2 -42 8 35 c7 32 27 59 121 162 l35 39 27 -22 27 -22
-26 -41 c-14 -22 -31 -44 -37 -48 -6 -4 -7 -8 -3 -8 23 0 -88 -122 -133 -145
-27 -14 -30 -13 -106 53 -43 37 -104 93 -136 125 -52 52 -88 79 -58 42 11 -13
10 -18 -6 -30 -10 -8 -14 -15 -8 -15 5 0 15 5 22 12 8 8 37 -13 117 -87 100
-93 106 -101 101 -129 -4 -17 -9 -65 -12 -106 -7 -87 -8 -90 -32 -83 -10 2
-34 -3 -53 -11 l-34 -16 30 4 c17 3 38 8 49 12 27 10 16 -15 -17 -40 l-27 -20
-23 22 c-15 15 -36 22 -61 22 -20 0 -56 5 -80 11 l-43 11 5 79 c3 43 1 79 -4
79 -5 0 -9 -36 -9 -80 0 -49 -5 -84 -13 -92 -9 -9 -12 -9 -12 4 0 9 -20 59
-45 110 -24 51 -46 104 -48 118 -3 15 10 60 33 114 l38 88 7 -54 c3 -29 11
-68 15 -87 6 -23 6 -39 -1 -48 -13 -14 -4 -63 11 -63 6 0 6 10 0 26 -6 14 -7
31 -3 37 4 7 12 -4 19 -28 11 -35 13 -37 13 -12 1 15 -6 38 -14 50 -7 12 -19
63 -25 114 -11 89 -10 93 16 160 31 78 47 101 88 118 34 14 65 7 152 -38z
m-227 -677 c-8 -39 -8 -84 1 -179 8 -87 8 -168 2 -261 l-9 -135 -52 -80 c-29
-44 -55 -82 -58 -85 -9 -8 57 110 81 145 20 28 21 44 21 220 0 105 -3 222 -7
260 -6 52 -4 84 8 124 19 67 28 61 13 -9z m45 51 c3 -4 32 -11 65 -15 33 -4
65 -13 71 -21 16 -19 44 -19 60 0 7 9 15 13 18 10 3 -3 11 0 19 6 10 9 13 6
15 -12 3 -49 7 -77 27 -171 11 -53 22 -112 25 -130 10 -76 43 -207 55 -222 4
-6 7 -33 5 -61 -1 -27 4 -78 11 -111 18 -80 25 -114 29 -140 2 -11 6 -26 9
-31 4 -6 13 -39 21 -74 7 -35 17 -71 20 -80 10 -24 -22 -53 -40 -38 -8 6 -14
18 -14 25 0 8 -4 14 -9 14 -10 0 -91 199 -91 224 0 9 -4 24 -10 34 -5 9 -23
67 -39 128 -16 61 -40 133 -55 160 -14 27 -26 54 -26 61 0 6 -6 18 -14 25 -19
19 20 311 47 352 10 15 17 30 14 32 -3 3 -14 -10 -25 -28 -13 -23 -25 -75 -37
-173 -9 -77 -23 -153 -31 -170 -17 -38 -54 -192 -54 -226 0 -15 -8 -37 -19
-50 -23 -30 -64 -104 -158 -291 -66 -132 -76 -147 -98 -146 -19 2 -23 7 -20
23 15 65 48 233 49 252 0 12 4 21 8 20 7 -2 115 166 128 198 16 42 22 313 10
417 -10 81 -10 115 -1 161 12 53 23 69 35 48z m646 -1090 c0 -5 -10 -13 -22
-17 -13 -4 -25 -10 -28 -13 -3 -4 -38 -19 -77 -33 -54 -20 -73 -23 -73 -14 0
21 49 49 115 68 71 20 85 21 85 9z m-785 -90 c17 -7 38 -17 47 -22 10 -5 24
-9 32 -9 8 0 18 -5 22 -11 4 -7 -10 -9 -47 -6 -81 7 -159 30 -159 45 0 8 6 12
13 9 6 -2 21 -1 32 3 11 4 22 7 25 6 3 -1 19 -8 35 -15z"/>
<path d="M1833 2080 c-8 -21 -16 -28 -27 -24 -9 3 -16 14 -16 23 -1 13 -2 13
-11 -3 -9 -15 -6 -22 17 -41 16 -13 32 -21 36 -19 7 5 22 83 16 89 -2 2 -9 -9
-15 -25z"/>
<path d="M2257 2083 c-4 -3 -7 -32 -7 -64 0 -52 3 -59 34 -87 34 -29 35 -32
29 -85 -5 -50 -4 -56 18 -67 23 -13 24 -12 7 7 -19 20 -23 59 -10 80 5 8 15
-6 27 -40 15 -40 20 -47 23 -29 3 18 -103 292 -113 292 -1 0 -5 -3 -8 -7z m53
-151 c0 -3 -11 5 -25 18 -18 17 -25 34 -25 59 l0 36 25 -53 c14 -30 25 -57 25
-60z"/>
<path d="M386 1991 c-3 -5 -7 -29 -8 -54 -3 -44 -5 -46 -55 -71 -52 -27 -63
-41 -63 -80 0 -30 18 -46 51 -46 21 0 42 16 90 68 50 56 66 68 85 64 13 -2 24
-8 24 -13 0 -5 7 -9 15 -9 8 0 15 -4 15 -10 0 -5 -16 -10 -35 -10 -34 0 -43
-12 -27 -36 10 -16 53 -37 60 -30 3 3 0 6 -6 6 -7 0 -12 5 -12 10 0 7 7 7 21
-1 17 -9 23 -8 30 2 13 21 11 49 -5 49 -15 0 -30 29 -21 39 3 3 15 0 25 -7 23
-14 30 -15 30 -4 0 4 -13 15 -28 24 -31 18 -60 10 -46 -13 6 -12 5 -12 -8 -1
-36 29 -60 23 -110 -28 -82 -84 -118 -98 -118 -45 0 28 22 53 56 61 13 3 24
10 24 14 0 16 81 40 119 35 26 -3 41 0 44 8 3 9 -10 11 -57 6 -33 -3 -69 -9
-80 -14 -16 -7 -18 -5 -11 26 3 19 9 42 11 52 6 18 -1 23 -10 8z"/>
<path d="M686 1935 c4 -38 8 -72 10 -74 8 -9 2 105 -7 124 -6 13 -7 -4 -3 -50z"/>
<path d="M2515 1908 c27 -58 31 -88 14 -121 -10 -21 -10 -21 5 -3 9 11 16 31
16 45 0 29 -40 131 -51 131 -5 0 3 -24 16 -52z"/>
<path d="M672 1838 c-7 -7 -12 -23 -12 -37 0 -30 15 -17 24 22 7 30 5 32 -12
15z"/>
<path d="M413 1787 c0 -7 -3 -32 -8 -57 -5 -30 -4 -42 3 -35 14 14 25 92 14
99 -5 3 -9 0 -9 -7z"/>
<path d="M2391 1773 c-31 -4 -33 -6 -27 -36 9 -44 16 -48 56 -29 26 13 36 25
38 45 4 29 5 28 -67 20z m33 -35 c-3 -4 -12 -8 -20 -8 -8 0 -14 4 -14 8 0 4 9
8 19 8 11 0 17 -4 15 -8z"/>
<path d="M2449 1708 c-5 -18 -6 -38 -1 -34 7 8 12 36 6 36 -2 0 -4 -1 -5 -2z"/>
<path d="M2407 1683 c-4 -3 -2 -12 4 -20 9 -10 8 -13 -2 -13 -26 -1 -46 -25
-53 -65 -6 -37 -5 -39 9 -21 8 11 15 30 15 42 0 17 9 25 45 35 25 7 45 17 45
22 0 4 -5 5 -10 2 -6 -3 -20 -3 -31 0 -17 6 -19 9 -8 16 8 5 9 9 3 9 -6 0 -14
-3 -17 -7z"/>
<path d="M367 1543 c-25 -128 -46 -275 -62 -434 l-7 -66 46 -23 c31 -14 73
-24 125 -27 l80 -6 6 -73 c4 -40 6 -123 3 -184 -3 -108 -4 -113 -31 -136 -42
-36 -56 -29 -19 9 31 32 32 33 22 91 -5 32 -24 88 -41 125 -35 72 -39 83 -41
124 -1 34 -14 44 -23 18 -8 -26 2 -62 38 -141 17 -36 36 -88 42 -117 15 -61 4
-87 -61 -140 -69 -57 -74 -63 -74 -79 0 -14 8 -16 55 -11 31 3 71 15 90 27 27
16 39 19 54 11 11 -6 28 -11 39 -11 11 0 36 -11 57 -26 42 -28 98 -30 103 -3
1 9 -28 46 -69 85 l-71 69 5 85 c4 58 15 113 36 174 36 103 39 125 16 106 -9
-7 -14 -15 -11 -17 2 -2 -13 -52 -33 -111 -24 -69 -38 -130 -40 -172 -2 -63
-1 -66 28 -88 30 -22 40 -42 22 -42 -5 0 -24 12 -41 27 -20 16 -34 22 -38 16
-4 -6 -7 78 -7 187 l0 198 80 16 c44 8 98 21 120 29 l39 14 -2 54 c-4 90 -22
249 -38 339 -13 72 -53 240 -58 240 0 0 -19 -7 -41 -15 -63 -22 -191 -18 -256
9 -13 6 -20 -15 -42 -131z m332 70 c6 -21 11 -45 11 -53 0 -9 6 -22 13 -29 10
-11 9 -13 -5 -8 -16 6 -18 0 -16 -46 1 -50 2 -50 5 -9 2 23 8 42 14 42 5 0 9
-1 9 -2 0 -2 7 -52 15 -113 15 -110 28 -245 29 -299 1 -33 -6 -38 -87 -61
-120 -35 -310 -24 -347 20 -8 10 -10 36 -5 87 4 40 8 80 7 88 0 8 4 33 9 56 4
22 10 60 13 85 8 76 26 153 37 160 7 4 7 8 2 10 -6 3 -6 21 1 49 l11 44 122
-1 c68 -1 125 3 128 8 12 18 24 8 34 -28z m-90 -1052 c13 -7 35 -14 48 -16 28
-3 81 -50 70 -62 -4 -4 -31 5 -60 20 -29 15 -61 28 -72 30 -11 1 -25 6 -31 9
-6 4 -28 -2 -50 -14 -21 -11 -54 -22 -73 -24 l-34 -3 34 24 c18 14 40 25 48
25 9 0 23 6 33 13 20 16 55 15 87 -2z"/>
<path d="M415 1579 c-5 -8 -4 -10 3 -5 9 5 13 -14 14 -66 l2 -73 3 69 c4 67
-6 101 -22 75z"/>
<path d="M683 1515 c0 -33 2 -45 4 -27 2 18 2 45 0 60 -2 15 -4 0 -4 -33z"/>
<path d="M411 1474 c1 -27 5 -60 9 -74 5 -15 6 4 3 45 -7 82 -13 99 -12 29z"/>
<path d="M673 1405 c0 -22 2 -30 4 -17 2 12 2 30 0 40 -3 9 -5 -1 -4 -23z"/>
<path d="M446 1387 c9 -63 63 -152 81 -133 3 3 1 6 -6 6 -7 0 -9 5 -5 12 4 6
3 8 -4 4 -12 -7 -38 39 -58 104 -14 44 -14 44 -8 7z"/>
<path d="M690 1386 c0 -20 2 -36 4 -36 8 0 12 61 4 66 -4 3 -8 -11 -8 -30z"/>
<path d="M652 1296 c-14 -72 -41 -139 -73 -181 l-22 -28 23 13 c20 11 22 10
17 -4 -4 -9 -5 -16 -3 -16 8 0 56 81 55 92 0 7 -5 2 -10 -11 -19 -48 -19 -12
0 45 19 59 37 154 29 154 -3 0 -10 -29 -16 -64z m-40 -178 c-7 -7 -12 -8 -12
-2 0 14 12 26 19 19 2 -3 -1 -11 -7 -17z"/>
<path d="M682 1315 c0 -16 2 -22 5 -12 2 9 2 23 0 30 -3 6 -5 -1 -5 -18z"/>
<path d="M448 1298 c9 -18 25 -39 35 -46 9 -7 14 -18 11 -24 -4 -7 -2 -8 5 -4
8 5 4 16 -13 37 -14 16 -27 38 -31 49 -3 11 -10 20 -15 20 -5 0 -1 -15 8 -32z"/>
<path d="M662 1240 c-6 -24 -9 -46 -7 -48 6 -6 27 68 23 80 -3 7 -10 -8 -16
-32z"/>
<path d="M1552 1594 c-2 -39 16 -72 31 -57 12 12 7 22 -7 17 -11 -4 -16 5 -19
38 l-4 43 -1 -41z"/>
<path d="M201 1540 l3 -55 -45 -16 -44 -17 -3 -88 c-2 -48 0 -85 3 -82 4 3 7
41 8 84 l2 78 40 15 c52 19 49 15 46 66 -2 50 1 52 89 58 35 2 28 4 -28 7
l-73 5 2 -55z"/>
<path d="M810 1574 c0 -6 12 -9 28 -7 21 3 31 -2 44 -24 17 -27 17 -27 18 -5
0 13 -4 20 -10 17 -5 -3 -10 2 -10 12 0 14 -8 18 -35 18 -19 0 -35 -5 -35 -11z"/>
<path d="M1902 1538 l2 -53 3 47 4 47 82 4 82 3 -87 2 -88 2 2 -52z"/>
<path d="M2100 1581 l25 -7 -3 -205 c-4 -237 -6 -232 80 -226 l53 3 -57 2 -58
2 0 220 0 220 -32 -1 c-31 -1 -31 -2 -8 -8z"/>
<path d="M792 1535 c0 -16 2 -22 5 -12 2 9 2 23 0 30 -3 6 -5 -1 -5 -18z"/>
<path d="M1592 1510 c0 -14 2 -19 5 -12 2 6 2 18 0 25 -3 6 -5 1 -5 -13z"/>
<path d="M2600 1510 c-9 -6 -10 -10 -3 -10 8 0 12 -47 12 -172 1 -95 5 -176
10 -181 5 -5 17 -7 27 -5 17 3 19 18 24 163 l5 160 68 3 67 3 1 -48 c1 -26 0
-64 0 -83 -1 -19 3 -42 9 -50 7 -11 10 17 10 91 l0 105 -85 0 -85 -1 0 -167
c0 -161 -1 -168 -20 -168 -19 0 -20 8 -22 185 -3 161 -5 183 -18 175z"/>
<path d="M905 1504 c6 -2 9 -62 7 -157 -3 -171 5 -210 41 -205 22 3 22 6 25
166 l2 162 70 0 69 0 7 -34 c3 -19 3 -39 -1 -45 -3 -6 -1 -11 5 -11 7 0 10 18
7 52 l-4 52 -82 1 -81 1 0 -168 c0 -161 -1 -168 -20 -168 -19 0 -20 7 -20 180
0 165 -1 180 -17 179 -10 0 -13 -2 -8 -5z"/>
<path d="M1620 1488 c-4 -23 0 -331 4 -335 3 -4 6 71 6 165 0 95 -2 172 -5
172 -3 0 -5 -1 -5 -2z"/>
<path d="M1838 1467 c-37 -10 -38 -12 -38 -59 0 -26 4 -48 8 -48 5 0 8 19 8
43 -1 28 3 41 12 40 6 -2 12 2 12 7 0 6 8 10 18 10 9 0 24 5 32 10 13 9 13 10
0 9 -8 -1 -32 -6 -52 -12z"/>
<path d="M1690 1253 l0 -103 -27 -1 c-26 -2 -26 -2 -4 -6 13 -3 27 -1 32 4 5
5 9 50 10 100 l1 92 51 3 52 3 -58 5 -57 5 0 -102z"/>
<path d="M1127 1343 c-4 -3 -7 -11 -7 -17 0 -6 5 -5 12 2 6 6 9 14 7 17 -3 3
-9 2 -12 -2z"/>
<path d="M4 1262 c5 -8 97 -5 105 4 2 2 -21 4 -53 4 -31 0 -55 -4 -52 -8z"/>
<path d="M2835 1261 c11 -5 24 -6 28 -4 5 3 18 2 30 -1 19 -4 22 -11 19 -49
-4 -52 12 -70 60 -64 l33 4 -37 1 -38 2 0 60 0 60 -57 -1 c-40 0 -52 -3 -38
-8z"/>
<path d="M102 843 c59 -2 158 -2 220 0 62 1 14 3 -107 3 -121 0 -172 -2 -113
-3z"/>
<path d="M798 843 c68 -2 176 -2 240 0 64 1 9 3 -123 3 -132 0 -185 -2 -117
-3z"/>
<path d="M1398 843 c12 -2 30 -2 40 0 9 3 -1 5 -23 4 -22 0 -30 -2 -17 -4z"/>
<path d="M1818 843 c83 -2 221 -2 305 0 83 1 15 3 -153 3 -168 0 -236 -2 -152
-3z"/>
<path d="M2608 843 c72 -2 192 -2 265 0 72 1 13 3 -133 3 -146 0 -205 -2 -132
-3z"/>
<path d="M575 630 c3 -5 8 -10 11 -10 2 0 4 5 4 10 0 6 -5 10 -11 10 -5 0 -7
-4 -4 -10z"/>
<path d="M2208 573 c-34 -9 -11 -33 30 -33 14 0 14 2 3 9 -7 5 -10 14 -7 20 7
11 4 12 -26 4z"/>
<path d="M2596 555 c-16 -12 -17 -15 -4 -15 24 0 48 11 48 21 0 13 -23 10 -44
-6z"/>
<path d="M2457 533 c18 -2 50 -2 70 0 21 2 7 4 -32 4 -38 0 -55 -2 -38 -4z"/>
<path d="M316 519 c-15 -9 -16 -13 -5 -20 16 -10 45 -12 36 -2 -4 3 -2 12 4
20 14 16 -7 18 -35 2z"/>
<path d="M771 512 c7 -11 19 -18 26 -15 15 6 18 23 4 23 -5 0 -17 3 -26 6 -15
6 -15 4 -4 -14z"/>
<path d="M538 473 c17 -2 47 -2 65 0 17 2 3 4 -33 4 -36 0 -50 -2 -32 -4z"/>
<path d="M1270 260 c18 -12 401 -10 394 2 -3 4 -96 8 -207 8 -132 0 -197 -4
-187 -10z"/>
<path d="M1794 251 c4 -6 13 -8 19 -5 7 4 7 1 -1 -7 -10 -11 -61 -14 -257 -14
-134 0 -247 -3 -251 -7 -10 -11 431 -9 544 2 135 13 141 24 18 35 -58 6 -77 5
-72 -4z"/>
</g>
</svg>
