<?xml version="1.0" standalone="no"?>
<!DOCTYPE svg PUBLIC "-//W3C//DTD SVG 20010904//EN"
 "http://www.w3.org/TR/2001/REC-SVG-20010904/DTD/svg10.dtd">
<svg version="1.0" xmlns="http://www.w3.org/2000/svg"
 width="128.000000pt" height="128.000000pt" viewBox="0 0 128.000000 128.000000"
 preserveAspectRatio="xMidYMid meet">
<metadata>
Created by potrace 1.10, written by Peter Selinger 2001-2011
</metadata>
<g transform="translate(0.000000,128.000000) scale(0.100000,-0.100000)"
fill="#000000" stroke="none">
<path d="M53 1070 c-19 -11 -35 -31 -39 -47 -3 -15 -7 -34 -10 -41 -7 -22 15
-2 31 28 8 15 28 33 46 39 43 15 1073 15 1116 1 18 -7 38 -26 52 -50 12 -22
24 -40 26 -40 6 0 -6 62 -17 82 -24 47 -32 48 -620 48 -532 0 -554 -1 -585
-20z"/>
<path d="M127 1032 c-10 -10 -17 -23 -17 -27 0 -5 114 -123 252 -262 198 -199
258 -253 278 -253 20 0 80 54 278 253 138 139 252 258 252 263 0 6 -8 18 -18
27 -17 15 -67 17 -514 17 -467 0 -496 -1 -511 -18z m776 -264 c-137 -137 -255
-248 -263 -248 -8 0 -126 111 -263 248 l-247 247 510 0 510 0 -247 -247z"/>
<path d="M59 974 c-9 -11 -12 -92 -12 -335 0 -286 2 -322 17 -337 15 -15 27
-5 186 153 94 93 170 176 170 184 0 15 -301 325 -331 342 -12 6 -21 4 -30 -7z
m177 -174 l160 -160 -160 -160 c-88 -88 -162 -160 -163 -160 -2 0 -3 144 -3
320 0 176 1 320 3 320 1 0 75 -72 163 -160z"/>
<path d="M1031 825 c-94 -93 -171 -176 -171 -185 0 -8 76 -91 169 -184 138
-138 172 -167 184 -158 30 25 31 639 1 680 -11 15 -31 -1 -183 -153z m179
-185 c0 -176 -1 -320 -3 -320 -1 0 -75 72 -163 160 l-160 160 156 158 c85 88
158 160 163 160 4 1 7 -142 7 -318z"/>
<path d="M272 447 c-89 -89 -162 -169 -162 -178 0 -38 8 -39 530 -39 521 0
530 1 530 39 0 19 -320 341 -338 341 -8 0 -46 -29 -83 -65 -62 -58 -74 -65
-110 -65 -37 0 -48 7 -108 65 -37 36 -74 65 -82 65 -8 0 -87 -73 -177 -163z
m310 17 c63 -33 117 -14 195 69 l51 54 164 -164 163 -163 -515 0 -515 0 163
163 164 164 51 -54 c29 -30 64 -61 79 -69z"/>
<path d="M4 299 c2 -8 7 -27 10 -42 4 -16 20 -36 39 -47 31 -19 53 -20 587
-20 534 0 556 1 587 20 19 11 35 31 39 47 3 15 8 35 10 43 2 8 -7 2 -21 -15
-14 -16 -25 -33 -25 -36 0 -25 -73 -29 -591 -29 -577 0 -588 1 -604 49 -3 11
-12 25 -21 32 -12 9 -14 9 -10 -2z"/>
</g>
</svg>
